<svg width="24" height="24" viewBox="0 0 24 24" fill="none" xmlns="http://www.w3.org/2000/svg">
<path d="M20.0001 18.8V8.96616L21.4857 9.85747C21.9592 10.1416 22.5735 9.98806 22.8576 9.51448C23.1418 9.04089 22.9882 8.42663 22.5146 8.14248L17.4927 5.12932L13.6515 2.81504L13.6514 2.81497C13.3722 2.64675 13.1579 2.51764 12.9763 2.42057C12.9339 2.39686 12.8909 2.3748 12.8473 2.35441C12.6962 2.28065 12.5651 2.23155 12.4305 2.20189C12.147 2.13941 11.8533 2.13941 11.5697 2.20189C11.4348 2.23163 11.3034 2.28091 11.1518 2.35499C11.109 2.37505 11.0667 2.39671 11.0251 2.41996C10.8432 2.51711 10.6286 2.6464 10.3488 2.81498L10.3488 2.81501L6.50181 5.13279L1.48566 8.14248C1.01208 8.42663 0.85851 9.04089 1.14266 9.51448C1.42681 9.98806 2.04107 10.1416 2.51465 9.85747L4.00012 8.96619V18.8C4.00012 19.9201 4.00012 20.4802 4.21811 20.908C4.40986 21.2843 4.71582 21.5903 5.09214 21.782C5.51996 22 6.08002 22 7.20012 22H9.00013V16C9.00013 14.3431 10.3433 13 12.0001 13C13.657 13 15.0001 14.3431 15.0001 16V22H16.8001C17.9202 22 18.4803 22 18.9081 21.782C19.2844 21.5903 19.5904 21.2843 19.7821 20.908C20.0001 20.4802 20.0001 19.9201 20.0001 18.8Z" fill="#0BBD7F"/>
</svg>
