<svg width="20" height="20" viewBox="0 0 20 20" fill="none" xmlns="http://www.w3.org/2000/svg">
<path fill-rule="evenodd" clip-rule="evenodd" d="M0.368993 4.54184C0.659124 2.34504 2.34504 0.659124 4.54184 0.368993C6.05208 0.169534 7.94127 0 10 0C12.0587 0 13.9479 0.169534 15.4582 0.368993C17.655 0.659124 19.3409 2.34504 19.631 4.54184C19.8305 6.05208 20 7.94127 20 10C20 12.0587 19.8305 13.9479 19.631 15.4582C19.3409 17.655 17.655 19.3409 15.4582 19.631C13.9479 19.8305 12.0587 20 10 20C7.94127 20 6.05208 19.8305 4.54184 19.631C2.34504 19.3409 0.659124 17.655 0.368993 15.4582C0.169534 13.9479 0 12.0587 0 10C0 7.94127 0.169534 6.05208 0.368993 4.54184ZM12.2071 7.20711C12.5976 6.81658 12.5976 6.18342 12.2071 5.79289C11.8166 5.40237 11.1834 5.40237 10.7929 5.79289L7.29289 9.29289C6.90237 9.68342 6.90237 10.3166 7.29289 10.7071L10.7929 14.2071C11.1834 14.5976 11.8166 14.5976 12.2071 14.2071C12.5976 13.8166 12.5976 13.1834 12.2071 12.7929L9.41421 10L12.2071 7.20711Z" fill="#D1D5DB"/>
</svg>
