<svg width="46" height="46" viewBox="0 0 46 46" fill="none" xmlns="http://www.w3.org/2000/svg">
<path fill-rule="evenodd" clip-rule="evenodd" d="M23.0002 42.1668C33.5855 42.1668 42.1668 33.5855 42.1668 23.0002C42.1668 12.4147 33.5855 3.8335 23.0002 3.8335C12.4147 3.8335 3.8335 12.4147 3.8335 23.0002C3.8335 33.5855 12.4147 42.1668 23.0002 42.1668ZM33.9388 18.6055C34.6872 17.8569 34.6872 16.6434 33.9388 15.8949C33.1903 15.1464 31.9767 15.1464 31.2282 15.8949L21.0835 26.0396L16.6888 21.6449C15.9403 20.8964 14.7267 20.8964 13.9782 21.6449C13.2297 22.3934 13.2297 23.607 13.9782 24.3554L19.7282 30.1054C20.4767 30.8539 21.6903 30.8539 22.4388 30.1054L33.9388 18.6055Z" fill="#22C55E"/>
</svg>
