<svg width="31" height="43" viewBox="0 0 31 43" fill="none" xmlns="http://www.w3.org/2000/svg">
<g id="Group 25">
<rect id="Rectangle 4601" width="29.8079" height="43" rx="4" fill="#00AECD"/>
<rect id="Rectangle 4602" x="2.08821" y="0.3" width="28.6117" height="42.4" rx="3.7" fill="white" stroke="#00AECD" stroke-width="0.6"/>
<path id="Rectangle 4603" d="M9.53833 0H24.4423C24.4423 1.64918 23.1054 2.98611 21.4562 2.98611H12.5244C10.8753 2.98611 9.53833 1.64918 9.53833 0Z" fill="#00AECD"/>
<rect id="Rectangle 4604" x="8.94238" y="8.36108" width="19.0771" height="2.38889" fill="#00AECD"/>
<rect id="Rectangle 4605" x="4.76953" y="13.7361" width="23.2502" height="2.38889" fill="#00AECD"/>
<rect id="Rectangle 4606" x="8.94238" y="19.1111" width="19.0771" height="2.38889" fill="#00AECD"/>
<rect id="Rectangle 4608" x="8.94238" y="29.8611" width="19.0771" height="2.38889" fill="#00AECD"/>
<rect id="Rectangle 4607" x="4.76953" y="24.4861" width="23.2502" height="2.38889" fill="#00AECD"/>
<rect id="Rectangle 4609" x="4.76953" y="35.2361" width="23.2502" height="2.38889" fill="#00AECD"/>
<path id="Vector 1665" d="M4.76953 9.33836L5.51473 10.1528L7.15416 8.36108" stroke="#FAB03E" stroke-linecap="round"/>
<path id="Vector 1667" d="M4.76953 20.0884L5.51473 20.9028L7.15416 19.1111" stroke="#FAB03E" stroke-linecap="round"/>
<path id="Vector 1668" d="M4.76953 30.8384L5.51473 31.6528L7.15416 29.8611" stroke="#FAB03E" stroke-linecap="round"/>
</g>
</svg>
