<svg width="42" height="42" viewBox="0 0 42 42" fill="none" xmlns="http://www.w3.org/2000/svg">
<g id="Group 2222">
<rect id="Rectangle 4581" width="42" height="42" rx="9" fill="#00AECD"/>
<g id="Group 2221">
<g id="Group 2255">
<path id="Vector 1679" d="M10.8174 22.403V29C10.8174 31.2091 12.6082 33 14.8174 33H27.181C29.3902 33 31.181 31.2091 31.181 29V22.403" stroke="white" stroke-width="2" stroke-linecap="round"/>
<path id="Vector 1680" d="M35 20.5321L23.5432 11.0949C22.066 9.87811 19.934 9.87811 18.4568 11.0949L7 20.5321" stroke="white" stroke-width="2" stroke-linecap="round"/>
<path id="Ellipse 1167" d="M26.364 22.4021C26.364 25.2732 23.9822 27.6357 21.0004 27.6357C18.0185 27.6357 15.6367 25.2732 15.6367 22.4021C15.6367 19.5311 18.0185 17.1686 21.0004 17.1686C23.9822 17.1686 26.364 19.5311 26.364 22.4021Z" stroke="white" stroke-width="2"/>
</g>
</g>
</g>
</svg>
