<svg width="28" height="28" viewBox="0 0 28 28" fill="none" xmlns="http://www.w3.org/2000/svg">
<path d="M14 15.3332C14.3778 15.3332 14.6947 15.2052 14.9507 14.9492C15.2058 14.6941 15.3334 14.3776 15.3334 13.9998V8.63317C15.3334 8.25539 15.2058 7.94428 14.9507 7.69984C14.6947 7.45539 14.3778 7.33317 14 7.33317C13.6222 7.33317 13.3058 7.46073 13.0507 7.71584C12.7947 7.97184 12.6667 8.28873 12.6667 8.6665V14.0332C12.6667 14.4109 12.7947 14.7221 13.0507 14.9665C13.3058 15.2109 13.6222 15.3332 14 15.3332ZM14 20.6665C14.3778 20.6665 14.6947 20.5385 14.9507 20.2825C15.2058 20.0274 15.3334 19.7109 15.3334 19.3332C15.3334 18.9554 15.2058 18.6385 14.9507 18.3825C14.6947 18.1274 14.3778 17.9998 14 17.9998C13.6222 17.9998 13.3058 18.1274 13.0507 18.3825C12.7947 18.6385 12.6667 18.9554 12.6667 19.3332C12.6667 19.7109 12.7947 20.0274 13.0507 20.2825C13.3058 20.5385 13.6222 20.6665 14 20.6665ZM14 27.3332C12.1556 27.3332 10.4222 26.9829 8.80002 26.2825C7.1778 25.5829 5.76669 24.6332 4.56669 23.4332C3.36669 22.2332 2.41691 20.8221 1.71735 19.1998C1.01691 17.5776 0.666687 15.8443 0.666687 13.9998C0.666687 12.1554 1.01691 10.4221 1.71735 8.79984C2.41691 7.17762 3.36669 5.7665 4.56669 4.5665C5.76669 3.3665 7.1778 2.41628 8.80002 1.71584C10.4222 1.01628 12.1556 0.666504 14 0.666504C15.8445 0.666504 17.5778 1.01628 19.2 1.71584C20.8222 2.41628 22.2334 3.3665 23.4334 4.5665C24.6334 5.7665 25.5831 7.17762 26.2827 8.79984C26.9831 10.4221 27.3334 12.1554 27.3334 13.9998C27.3334 15.8443 26.9831 17.5776 26.2827 19.1998C25.5831 20.8221 24.6334 22.2332 23.4334 23.4332C22.2334 24.6332 20.8222 25.5829 19.2 26.2825C17.5778 26.9829 15.8445 27.3332 14 27.3332Z" fill="#F97316"/>
</svg>
