<svg width="40" height="40" viewBox="0 0 40 40" fill="none" xmlns="http://www.w3.org/2000/svg">
<path fill-rule="evenodd" clip-rule="evenodd" d="M20 39.1668C30.5853 39.1668 39.1666 30.5855 39.1666 20.0002C39.1666 9.4147 30.5853 0.833496 20 0.833496C9.41452 0.833496 0.833313 9.4147 0.833313 20.0002C0.833313 30.5855 9.41452 39.1668 20 39.1668ZM18.0833 12.3335C18.0833 11.275 18.9414 10.4168 20 10.4168C21.0586 10.4168 21.9166 11.275 21.9166 12.3335C21.9166 13.3921 21.0586 14.2502 20 14.2502C18.9414 14.2502 18.0833 13.3921 18.0833 12.3335ZM18.0833 20.0002C18.0833 18.9416 18.9414 18.0835 20 18.0835C21.0586 18.0835 21.9166 18.9416 21.9166 20.0002V27.6668C21.9166 28.7254 21.0586 29.5835 20 29.5835C18.9414 29.5835 18.0833 28.7254 18.0833 27.6668V20.0002Z" fill="#14B8A6"/>
</svg>
