<svg width="50" height="50" viewBox="0 0 50 50" fill="none" xmlns="http://www.w3.org/2000/svg">
<ellipse cx="24.75" cy="47.75" rx="21.75" ry="0.75" fill="#8CD8B3"/>
<rect x="8.5" y="2" width="30.4118" height="45.4426" rx="4.39344" fill="#CF7D31"/>
<rect x="11.205" y="2" width="30.2951" height="45.4426" rx="4.39344" fill="#FFF8E1"/>
<rect x="21.4836" y="3.08197" width="9.73771" height="1.62295" rx="0.811475" fill="#DA943A"/>
<rect x="27.9755" y="11.1967" width="10.3529" height="3.23529" fill="#FFA200"/>
<rect x="27.9755" y="16.6066" width="10.3529" height="3.23529" fill="#FFA200"/>
<rect x="14.4508" y="22.5574" width="23.8033" height="3.2459" fill="#FFA200"/>
<rect x="14.4508" y="28.5082" width="23.8033" height="3.2459" fill="#FFA200"/>
<rect x="14.4508" y="34.459" width="23.8033" height="9.19672" fill="#FFA200"/>
<path d="M19.5587 12.7479L17.6473 18.5738H16.1075L18.7188 11.546H19.6986L19.5587 12.7479ZM21.1467 18.5738L19.2304 12.7479L19.076 11.546H20.0655L22.6912 18.5738H21.1467ZM21.0598 15.9577V17.092H17.348V15.9577H21.0598Z" fill="#007E44"/>
<path fill-rule="evenodd" clip-rule="evenodd" d="M23.6475 12.2787V13.3606H24.7295V12.2787H25.8115V11.1967H24.7295V10.1147L23.6475 10.1147V11.1967H22.5656V12.2787H23.6475Z" fill="#007E44"/>
</svg>
