<svg width="50" height="50" viewBox="0 0 50 50" fill="none" xmlns="http://www.w3.org/2000/svg">
<ellipse cx="25" cy="40" rx="23" ry="1" fill="#8CD8B3"/>
<rect x="5" y="40" width="26.5" height="36.5" rx="4" transform="rotate(-90 5 40)" fill="#007E44"/>
<rect x="7.5" y="40" width="26.5" height="36.5" rx="4" transform="rotate(-90 7.5 40)" fill="#0BBD7F"/>
<rect x="17.5" y="21" width="22.5" height="4" rx="2" fill="#007E44"/>
<rect x="11.5" y="27" width="22.5" height="4" rx="2" fill="#007E44"/>
<path d="M15.5 15C14.3954 15 13.5 14.1046 13.5 13L13.5 11.5C13.5 10.3954 14.3954 9.5 15.5 9.5L16 9.5L16 15L15.5 15Z" fill="#005F2E"/>
<path d="M16 15C15.1716 15 14.5 14.3284 14.5 13.5L14.5 11C14.5 10.1716 15.1716 9.5 16 9.5C16.8284 9.5 17.5 10.1716 17.5 11L17.5 13.5C17.5 14.3284 16.8284 15 16 15Z" fill="#007E44"/>
<path d="M36 15C34.8954 15 34 14.1046 34 13L34 11.5C34 10.3954 34.8954 9.5 36 9.5L36.5 9.5L36.5 15L36 15Z" fill="#005F2E"/>
<path d="M36.5 15C35.6716 15 35 14.3284 35 13.5L35 11C35 10.1716 35.6716 9.5 36.5 9.5C37.3284 9.5 38 10.1716 38 11L38 13.5C38 14.3284 37.3284 15 36.5 15Z" fill="#007E44"/>
<path d="M44.5 24.19V36.1898C44.5 37.1688 43.7314 38.067 42.7876 38.1881L42.4859 38.2285C40.8903 38.4505 38.6427 39.1368 36.833 39.924C36.2005 40.1965 35.5 39.702 35.5 38.9854V24.947C35.5 24.5735 35.7043 24.2304 36.0254 24.0487C37.8059 23.0496 40.5011 22.1615 42.3303 22H42.3886C43.5562 22 44.5 22.979 44.5 24.19Z" fill="#CF7D31"/>
<path d="M45.5 24.19V36.1898C45.5 37.1688 44.7314 38.067 43.7876 38.1881L43.4859 38.2285C41.8903 38.4505 39.6427 39.1368 37.833 39.924C37.2005 40.1965 36.5 39.702 36.5 38.9854V24.947C36.5 24.5735 36.7043 24.2304 37.0254 24.0487C38.8059 23.0496 41.5011 22.1615 43.3303 22H43.3886C44.5562 22 45.5 22.979 45.5 24.19Z" fill="#FFF8E1"/>
<path d="M24.5 24.19V36.1898C24.5 37.1688 25.2686 38.067 26.2124 38.1881L26.5141 38.2285C28.1097 38.4505 30.3573 39.1368 32.167 39.924C32.7995 40.1965 33.5 39.702 33.5 38.9854V24.947C33.5 24.5735 33.2957 24.2304 32.9746 24.0487C31.1941 23.0496 28.4989 22.1615 26.6697 22H26.6114C25.4438 22 24.5 22.979 24.5 24.19Z" fill="#CF7D31"/>
<path d="M25.5 24.19V36.1898C25.5 37.1688 26.2686 38.067 27.2124 38.1881L27.5141 38.2285C29.1097 38.4505 31.3573 39.1368 33.167 39.924C33.7995 40.1965 34.5 39.702 34.5 38.9854V24.947C34.5 24.5735 34.2957 24.2304 33.9746 24.0487C32.1941 23.0496 29.4989 22.1615 27.6697 22H27.6114C26.4438 22 25.5 22.979 25.5 24.19Z" fill="#FFF8E1"/>
<rect x="27.5" y="26" width="5" height="1" rx="0.5" fill="#EBC78C"/>
<rect x="27.5" y="28" width="5" height="1" rx="0.5" fill="#EBC78C"/>
</svg>
