<svg width="46" height="46" viewBox="0 0 46 46" fill="none" xmlns="http://www.w3.org/2000/svg">
<g id="icons/Check/Filled">
<path id="Exclude" fill-rule="evenodd" clip-rule="evenodd" d="M23.0002 42.1666C33.5855 42.1666 42.1668 33.5853 42.1668 22.9999C42.1668 12.4145 33.5855 3.83325 23.0002 3.83325C12.4147 3.83325 3.8335 12.4145 3.8335 22.9999C3.8335 33.5853 12.4147 42.1666 23.0002 42.1666ZM33.9388 18.6052C34.6872 17.8567 34.6872 16.6431 33.9388 15.8946C33.1903 15.1461 31.9767 15.1461 31.2282 15.8946L21.0835 26.0394L16.6888 21.6446C15.9403 20.8961 14.7267 20.8961 13.9782 21.6446C13.2297 22.3931 13.2297 23.6067 13.9782 24.3552L19.7282 30.1052C20.4767 30.8537 21.6903 30.8537 22.4388 30.1052L33.9388 18.6052Z" fill="#22C55E"/>
</g>
</svg>
