<svg width="51" height="50" viewBox="0 0 51 50" fill="none" xmlns="http://www.w3.org/2000/svg">
<ellipse cx="25.25" cy="39.75" rx="21.75" ry="0.75" fill="#8CD8B3"/>
<rect x="6" y="40" width="26.5" height="36.5" rx="4" transform="rotate(-90 6 40)" fill="#007E44"/>
<rect x="8.5" y="40" width="26.5" height="36.5" rx="4" transform="rotate(-90 8.5 40)" fill="#0BBD7F"/>
<rect x="18.5" y="21" width="22.5" height="4" rx="2" fill="white"/>
<rect x="12.5" y="27" width="22.5" height="4" rx="2" fill="white"/>
<path d="M16.5 15C15.3954 15 14.5 14.1046 14.5 13L14.5 11.5C14.5 10.3954 15.3954 9.5 16.5 9.5L17 9.5L17 15L16.5 15Z" fill="#005F2E"/>
<path d="M17 15C16.1716 15 15.5 14.3284 15.5 13.5L15.5 11C15.5 10.1716 16.1716 9.5 17 9.5C17.8284 9.5 18.5 10.1716 18.5 11L18.5 13.5C18.5 14.3284 17.8284 15 17 15Z" fill="#007E44"/>
<path d="M37 15C35.8954 15 35 14.1046 35 13L35 11.5C35 10.3954 35.8954 9.5 37 9.5L37.5 9.5L37.5 15L37 15Z" fill="#005F2E"/>
<path d="M37.5 15C36.6716 15 36 14.3284 36 13.5L36 11C36 10.1716 36.6716 9.5 37.5 9.5C38.3284 9.5 39 10.1716 39 11L39 13.5C39 14.3284 38.3284 15 37.5 15Z" fill="#007E44"/>
</svg>
