<svg width="26" height="23" viewBox="0 0 26 23" fill="none" xmlns="http://www.w3.org/2000/svg">
<path d="M2.96 22.9999H23.04C25.0933 22.9999 26.3733 20.7732 25.3467 18.9999L15.3067 1.65324C14.28 -0.120091 11.72 -0.120091 10.6933 1.65324L0.653332 18.9999C-0.373334 20.7732 0.906665 22.9999 2.96 22.9999ZM13 13.6666C12.2667 13.6666 11.6667 13.0666 11.6667 12.3332V9.66658C11.6667 8.93324 12.2667 8.33324 13 8.33324C13.7333 8.33324 14.3333 8.93324 14.3333 9.66658V12.3332C14.3333 13.0666 13.7333 13.6666 13 13.6666ZM14.3333 18.9999H11.6667V16.3332H14.3333V18.9999Z" fill="#EF4444"/>
</svg>
